<svg xmlns="http://www.w3.org/2000/svg" width="2500" height="2500" viewBox="0 0 192.76 192.76"><g fill-rule="evenodd" clip-rule="evenodd"><path fill="#fff" d="M0 0h192.76v192.76H0V0z"/><path d="m104.92 88.39-3.2.2-.39.18-6.4-.29-1.08.1-1.06-.1-.2.2c0 .1-.1.2-.2.38l-.38 2.92c0 .2-.1.39-.2.58-.1.3 0 .49.1.68.49-.1.78-.2.78-.68l.39-1.07c.2-.58.58-.97.97-1.06l3-.1.1 1.16c0 .4 0 .68.2 1.07l.39.97s-.1.1-.2.1h-.1l-.28 8.25c-.2.4-.2.88-.2 1.36l-1.07.97-.68.1-.48.39c.1.29.29.39.58.29l6.8-.1.29-.2c.2-.19.2-.28 0-.48l-1.65-.19c-.2-.2-.2-.3-.2-.68l-.29-1.07-.19-1.26.1-1.46-.3-1.65.3-3-.3-3.02c.2-.38.3-.77.2-1.26l.48-.39 2.82-.29c.39.1.68.58.78 1.46l.1.77c-.1.2 0 .49.1.68.28.1.38 0 .57-.19v-2.04c-.1-.78 0-1.46.2-2.14l-.2-.1zm8.64.2-.48-.1-6.02.1c-.2.09-.3.28-.3.57.3.2.59.3.88.3l.49.48c.39.39.58.78.58 1.36v1.46l.1.97-.1 1.06.29.78-.2.88-.1 2.62c-.18.29-.09.48.1.77.2.2.3.59.2.97-.2.4-.2.78-.3 1.27l-.28 1.36-.68.58c-.4.1-.58.2-.88.3-.19.09-.19.18-.19.48h2.62l.1-.1 3.79.2.38-.2.3-.3-.88-.19a2.17 2.17 0 0 1-1.16-1.45 9.73 9.73 0 0 1-.2-1.85l-.1-.87.1-.88-.2-.68V98c0-.2 0-.39.1-.49l.4-.39.48-.1h5.34c.78-.09 1.46-.28 2.14-.67l.1 1.06c-.1.2-.1.5 0 .88l.1.97a7.97 7.97 0 0 1-.3 3.69c0 .49-.2.78-.68.87-.39 0-.68.2-.97.49l.1.39h6.3l.3-.4c-.2-.09-.39-.09-.68-.18l-.68-.49a9.15 9.15 0 0 1-.68-2.82v-3.1c-.1-.3-.1-.59-.1-.78L123 95v-1.26c-.3-.49-.3-.97-.2-1.46.2-.48.3-1.07.2-1.55l.58-1.07c.29-.39.68-.49 1.06-.58.1-.1.2-.2.3-.1l.1-.3-.88-.28-2.62.2-2.72-.1c-.39-.1-.68.1-.88.38l.4.3.57.19c.3.2.59.39.68.78l.3.87.2 1.55c0 .49.09 1.07.18 1.75.2.68.1 1.17-.29 1.65l-1.94-.48h-5.73l-.68-.2a12.6 12.6 0 0 1 0-2.72c0-.87.1-1.74.4-2.62.18-.29.57-.58.96-.58l.88-.39-.3-.39zm14.76-.1-1.06.09c-.49-.1-.68 0-.78.48l1.17.59c.29.2.38.48.48.87v1.17c-.1.1 0 .2 0 .29l.1.58c.29.1.39.39.29.68l-.3.78c0 .2.1.48.4.68l-.2.68.2.58c-.1.3-.2.78-.3 1.46v2.04c-.1.68 0 1.16 0 1.45-.1.4-.1.97-.1 1.56.1.48-.1.97-.57 1.26l-.68.48c-.3 0-.5.2-.59.49l.59.2.68-.1 10.58.19.1-.1c.48-.2.77-.48.87-.87l.39-1.26c.2-.4.29-.68.29-1.07-.1-.39-.1-.68 0-.97 0-.2-.1-.3-.3-.2h-.38c-.1.1-.3.3-.3.4l-.09.48-.87.97-.97.87-1.27.1h-2.42a3.03 3.03 0 0 1-2.04-1.07c-.1-.2-.2-.48-.1-.77v-.69l.2-.97-.1-.97c-.2-.29-.2-.48-.1-.68l.29-.68s0-.1.2-.1l.19-.1 3.78.1.68.2c.3 0 .68.2.88.39l.58.87c.2 0 .39-.1.58-.29l.2-4.08-.1-.29c-.39-.1-.58 0-.68.3l-.3.67-1.26.59-4.85-.1a1.6 1.6 0 0 1-.2-1.17 1.24 1.24 0 0 0 0-1.16c.3-.4.4-.78.3-1.36l-.3-1.46c.3-.39.59-.48.98-.39l3.3.2.39-.2h.39l.77.3c.49.1.88.38.88.87.1.48.19.87.48 1.26l.49-.2.19-2.71.2-.68c.1-.2 0-.39-.3-.49h-3.98c-1.07.2-2.13.1-3.3 0a9.44 9.44 0 0 0-3.3 0zm-60-61.47-1.56-.1-1.07.1h-5.24l-.48.39.38.2.3.19c.29.2.38.39.38.68v.68l.1.58c.2.1.3.3.2.48l-.2.59.3.48c-.2.3-.2.49 0 .78l-.2.97-.1 3.4c0 .39-.1.68-.39.97l-.48.2-.4.38.4.1 7.57.1.1-.1c.39-.1.58-.2.68-.59l.2-.87.19-1.36-.2-.1h-.2l-.19.3-.19.29-.49.68-.68.48-.87.2h-1.65c-.58-.1-.97-.3-1.36-.68-.1-.2-.2-.4-.1-.59v-.58l.1-.58V34c-.2-.1-.2-.3 0-.4l.1-.48.1-.1h2.71c.1.1.1.1.3.1l.77.4.39.48.39-.2.2-2.72-.2-.19-.4.2-.18.48c-.3.2-.59.3-.88.39l-3.3-.1c-.1-.2-.2-.48-.1-.78.1-.19.1-.48 0-.77l.2-.97-.2-.97c.2-.2.4-.2.68-.2l2.24.1.48-.1h.3l.28.2c.3 0 .49.29.59.58l.29.77.29-.1.2-1.84.19-.39c0-.19-.1-.28-.3-.38zm-10.78 1.46.48-.68c.1-.2.4-.4.68-.4l.2-.09v-.2l-1.26-.19-1.07.1-1.75-.1-.68.3c.2.19.39.29.68.38l.49.59.19.58.3 2.14c.09.48 0 .87-.3 1.16l-1.26-.29h-3.4c-.39.1-.68 0-.97-.2v-1.84l.3-1.75.67-.39.3-.1.28-.19-.29-.29c-.1 0-.2 0-.2-.1l-4.07.2-.3.38.69.2.29.29c.2.3.39.68.39.97l.1 1.65-.1.68c.2.3.2.68.1 1.07l-.1 1.75c-.1.2-.1.38.1.58.1.1.1.3.1.58l-.1.97-.3.88c-.1.29-.29.38-.48.38l-.49.2-.2.29 1.76.1.1-.1 2.52.1.48-.3-.58-.19c-.48-.2-.68-.48-.78-.97l-.19-1.16.1-1.27-.2-.48.1-.59.49-.38 3.69.1 1.45-.5.1.69-.1.58.1.68c.1.78.1 1.65-.2 2.53 0 .29-.2.48-.48.58l-.58.3v.28h4.37l.1-.29-.5-.2-.38-.28a4.08 4.08 0 0 1-.39-1.95l-.1-2.03a.61.61 0 0 1 0-.59l.1-1.26v-.78c-.2-.29-.2-.68-.1-.97.2-.39.2-.78.1-1.16zm-14.27-1.46-.2.2-4.37-.3-.78.1-.67-.1-.2.3-.1.19-.19 1.94-.1.39c-.1.2-.1.39 0 .48.3-.1.49-.19.59-.48l.19-.68c.2-.58.58-.87 1.16-.87h1.56v.87c0 .58.2.97.48 1.26l-.29.1-.2 4.66c.1.39.1.58 0 .88l-.09 1.06c-.2.3-.39.49-.68.59-.39 0-.68.1-.87.38.1.1.2.2.48.2l4.57-.1.2-.1c.09-.1.09-.29-.1-.38l-1.07-.2-.3-1.07-.19-.87c.1-.3.1-.68 0-1.07l-.1-1.07c.1-.58.2-1.26.1-2.04l-.1-2.04c.1-.19.1-.48.1-.77l.39-.3 1.84-.19c.3 0 .49.39.59.97v.49l.19.48.3-.1.09-2.8-.1-.1-1.84.1h-.3v-.01zm12.81 63.6-.87.78a5.03 5.03 0 0 0-1.07 2.33l-.1 1.26-.39.97v.49l.1.19.3 1.26c.09.2.09.58.09.97.1 0 .2.2.1.3l.1.38.38.68c.2.1.4.4.49.59l.2.87.48.78.68.77.87.49c.4.48.88.68 1.46.77.48.1 1.07.3 1.55.69l.59.19h3.98a9.98 9.98 0 0 0 3.88-.97c-.1-.2-.3-.2-.58-.2l-.68.1 1.84-1.07 1.46-1.65.68-1.65c0-.48.1-.87.39-1.26.1-.39.2-.78.1-1.36.19-.58.19-1.16 0-1.65l-.3-1.65a10.2 10.2 0 0 0-1.36-2.72 3.7 3.7 0 0 0-1.16-1.26 5.67 5.67 0 0 1-1.46-1.07l-1.16-.48-.97-.1c-.4-.3-.78-.4-1.27-.4l-1.36.1-1.06-.1-1.17.1-1.75.59-1.06.2c-.4 0-.68.1-.97.38l.38.1.68-.3.78.1-.2.2-1.64.68a2 2 0 0 0-.98.58zm2.92.1 1.84-1.17 2.62-.1.2.1 2.04.68a5.95 5.95 0 0 1 1.65 1.85l1.16 2.23c.3 1.17.49 2.43.4 3.79.09.87-.1 1.65-.4 2.33-.1.39-.2.68-.39.97l-1.06 1.36-.59.39-1.36.58-2.23.1-.68-.1-2.23-.97-.2-.4-1.55-1.35c0-.39-.1-.68-.2-.97l-.28-.88-.49-.77-.3-.68.2-.59c0-.19 0-.48-.1-.58l.1-1.16c0-.4.1-.78 0-1.17.2-.2.3-.29.3-.48v-.59a1.26 1.26 0 0 1 .48-1.26c.39-.39.77-.68 1.07-1.16zm15.34-2.24-.59-.2c-.29 0-.48 0-.68.3v.39l.3.2c.29-.1.58.09.68.38l.58.78.2.48v.4c.19.58.48 1.16.48 1.84a2.2 2.2 0 0 1-.49 1.74c.2.4.2.68.2 1.17l-.1 1.07c.1.78.2 1.55.1 2.33v2.23l-.49 1.75-.48.49-.49.29-.2.19-.19.39.88.1.78-.1h3.1l2.33.1.3-.1.19-.3-1.75-.57c-.39-.1-.68-.4-.87-.78l-.3-1.17.1-.58v-.48c-.2-.49-.2-1.07 0-1.46.2-.49.3-.97.2-1.46.19-.29.48-.39.77-.29l.97-.1 3.2.1c.5.2.79.49.88.97l.2.68c0 .2.2.3.48.3l.3-.3.29-3.5-.1-1.45c-.39 0-.58.1-.68.3-.1.38-.3.67-.49.87l-.87.48h-5.15v-1.94c.3-.58.4-1.17.2-1.65a2.41 2.41 0 0 1 0-1.65c.2-.49.48-.68.97-.58l3-.1 1.76.2.77 1.06.3 1.26h.38l.3-.29.19-.39v-1.65c.1-.48.1-1.06 0-1.65l-1.26-.2-5.83.1a32.9 32.9 0 0 1-4.37 0z"/><path d="M142.8 44.01a20.79 20.79 0 0 0-4.28-1.94l-5.44-1.17-7.96-.1-.3.1-3.39.2-.78.68a2.9 2.9 0 0 1-.97-.39h-.97l-.78.49-.29.77c-.19.2-.29.2-.39.1-.48-.58-.97-.97-1.55-1.07h-2.23l-.39.1-.2.1-.1.2-.48.09-.48-.49h-.3l-.38.1h-.88l-.87.1-.3.2-.18.77s0 .1.1.2l1.45.19h.1c.48.1.87.19 1.36.58l.87.48.39.97c.39.49.68.98.77 1.56l.1 1.75c.3.38.49.77.49 1.26l-.1.77-.1.49-.1.39v.68l.1.39-.1.1v.68l.3.77c.1.39.1.68-.1.97v.2l-.1.1v1.06l.1-.1.1 1.07-.2 1.36c.2.3.2.68.1 1.07l-.1 1.07.2.38c.1.4.19.88.1 1.27-.2.39-.2.77-.2 1.16l.1 1.75c-.2.39-.3.78-.2 1.26V68c.2.4.3.68.2 1.07l-.1.88c-.1.2-.2.48-.1.77l.1 1.56-.1 1.65c-.29.2-.39.48-.29.68l.3.68c.09.2.09.48 0 .77-.2.3-.2.59 0 .88.19.29.09.58-.1.87 0 .49-.1 1.07-.4 1.46l-.48 1.45-1.07.78c-.19.1-.29.1-.39 0l-.97-.2-1.06-.58-.88-.19-2.52-2.52-2.62-3.89-3.8-6.7-.77-1.75a3.3 3.3 0 0 1-.68-1.84l1.07-.87 2.81-3.01.88-1.46.2-.39.19-.49.48-1.16.68-4.76v-.1l-.2-.68v-.87l-1.06-2.91a7.12 7.12 0 0 0-1.94-2.62 16.17 16.17 0 0 0-3.1-2.14l-.98-.39h-.2l-.38-.1-.2-.1-.87-.19v-.1l-.87-.1-.1-.09h-.1l-1.45-.19c-.2 0-.4 0-.5-.2l-2.9-.1h-.68l-7.1.3-2.03.3-4.27.09-1.27.2c-.58-.1-.97.09-1.16.48l.2.87 1.06.1 1.07.39h.1l.39.1.87.77.2.3.38 1.16.1 1.16v.4l.2.48.19.38.29 3.11-.2.1v.1l-.1.38.1 2.63c.2.29.4.58.4.97v.29l-.5 1.55a2.71 2.71 0 0 0 .1 1.94c.1.3.2.59 0 .88l-.1.97.1.68v3.1l.2.68.1.1.48.49-.58 1.16c-.3.49-.3.97-.2 1.46v2.82l.2.58-.2.78v.48l-.1.88v1.26c0 .48-.1.87-.19 1.26.1.49.1.97 0 1.46l-.39 1.36-.87 1.06-.97.88-1.17.2c-.48 0-.87.19-1.16.48v.39l.1.58.87.2 2.81-.1.59-.1 5.34-.2h.1l.67.2h.59l1.26.1 2.52.1 1.75-.1.68-.1h-.1l.3-.49v-.58l-.78-.29-1.17-.2-.87-.38-1.17-.68-.97-1.17-.1-.68c.1-.58 0-.97-.1-1.45-.28-.4-.38-.88-.38-1.36l.1-.49-.2-.49-.1-1.55v-1.75c.1-.87.1-1.65.1-2.42l-.29-2.82.1-.1.3-.29.57-.2h.1l.1.1 1.36.2h.2l2.23-.3h1.84l.39.3 1.07 2.52 2.42 4.56c.4.88.88 1.85 1.56 2.72l1.74 2.72 2.14 2.33 1.07.97 1.17.68h.1l.09.1.97.3.97.48h.97l.68.2.3-.1a.74.74 0 0 0 .48.19h.1l.58-.2h3.5l3.4.2h.1l.48-.2h.58l.39.1h.29l.58-.1h3.6l.67.2h7.58l.39-.1h.1l1.74-.1 2.23-.29.3-.1 1.06-.19h.3l.68-.1h.19l.1-.19h.48v-.1c.49 0 .97-.1 1.46-.38l.68-.3.78-.19.97-.68.2-.1 1.25-.77a6.48 6.48 0 0 0 2.43-1.85l2.24-2.52 2.03-3.79 1.46-4.27v-.3l.39-1.74v-.3l.2-1.55.09-1.65c.2-.48.2-.97.1-1.45v-.3l-.1-.48.1-1.17-.59-2.42c-.19-.88-.38-1.66-.58-2.53l-.97-2.52a6.23 6.23 0 0 0-1.46-2.43l-1.65-2.04a13.67 13.67 0 0 0-3.69-3zm-7.3 2.14.79.39 1.94 1.26c.2.39.48.68.77.97.4.2.59.49.68.97a5.95 5.95 0 0 1 1.65 2.33c.4.3.49.58.4 1.07l.77.97.29.97v.1l-.1-.1c.1.3.2.58.4.78l.38.39a.75.75 0 0 0 .2.77l.48.68.1.1c0 .2 0 .39-.2.58-.1.3.1.58.4.68h1.16l1.16-.2.88.2h.1l.19-.1h.58l.78.1.68.2.19.1-.1.28h-.1l-.58.2-.1.1h-.67s-.1-.1-.2-.1h-.48l-3.5.39-.48.29-.1.1-.2.48.49.78c.1.19.1.48 0 .77l-.1.78v.1c-.1.29 0 .58.1.87l.1.2-.2.77v.39l.1.48-.1.3-.29.68v-.1l-.39 2.91c-.1.88-.39 1.75-.87 2.43-.49.78-.87 1.65-1.17 2.43l-1.55 1.94a6.25 6.25 0 0 0-1.84 1.26c-.59.49-1.27.88-1.95 1.07l-.97.29c-.29.2-.58.3-1.07.2l-3.4.48-8.05-.78-1.07.1-1.36-.39h-.1l-.19-.39.48-.58.49-.3.78-.19c.29-.1.38-.19.38-.38l-.29-.98-.1-1.55-.1-.58v-.49l.2-.87v-.58l-.2-.4c-.09-.48-.09-.96 0-1.35l.1-3.01c-.1-.68-.1-1.26 0-1.85l-.19-11.36c.2-.48.3-.97.1-1.36-.1-.48-.1-.97 0-1.45s.1-1.07 0-1.56v-.1l.1-1.16-.1-.2V48c-.1-.58-.1-1.17.1-1.75v-.68l.1-.3h.1l1.16-.28 1.16-.1 2.43-.39 2.91.1 2.43.39.3-.1.96.2.1.19c.3.1.68.3.97.3l.2.09 1.16.49zm-39.8 2.23.29.68.87 1.65.2.58.2.2.18.87c.2.49.2 1.07.1 1.65l-.19 1.85c-.3.48-.39.97-.39 1.55 0 .58-.2 1.17-.48 1.56v.38l-1.27 1.56c-.38.48-.77.78-1.36.97l-1.74.97-2.04.39-1.07-.2-1.07.1c-.49-.2-.87-.2-1.26 0-.39.1-.78 0-1.07-.39v-.39l-.29-2.23v-.68l.2-.58c0-.49 0-.78-.1-1.17-.1-.29 0-.68.29-.97l-.2-.58.1-.58v-.1l.1-.58c.1-.2.1-.4-.1-.59l-.2-.68-.09-.29.2-.39.19-2.62v-.2l.1-1.74c.1-.2.1-.39.1-.58v-.1l-.1-.1.19-.48-.1-1.26.1-1.17a.53.53 0 0 1 .48-.3c.2 0 .4 0 .59-.09l3.2.1 1.65.39h.1l1.84 1.07.88.87.97 1.65zm85.74 60.5-1.94.38h-2.33l-4.76-.48c-.2-.2-.4-.2-.68-.2h-.68l-1.07.2c-.1-.2-.3-.2-.39-.2l-.48.2-.59.1h-.58l-.39.1-.29-.1-.97.19-.97.1-3.01 1.65-1.75 1.26c-.39.2-.68.48-.88.78l-.29 1.06H159l-.19-.39c-.39 0-.58.2-.68.4l-1.16 1.35c-.3.3-.4.58-.3.88-.29.48-.38.87-.38 1.45a2.32 2.32 0 0 1-.68 1.26v.59c0 .2.2.29.38.39l-.19.58c-.1.2-.1.48.1.77.2.2.2.5 0 .78-.1.2-.1.4.1.68.38.49.48 1.17.38 1.85 0 .29 0 .48.2.68l.58.39c.1.1.2.29.1.58l.97 1.26c.3.39.68.78 1.16.97l.1.2h-.1l.3.29.58.48.87.49.3.1a3.7 3.7 0 0 0 1.64 1.16l.78.3 1.17.77c.39.29.77.58 1.36.68.48.1.87.39 1.35.68.3.2.59.29.98.48l1.06.4 2.53 1.26.68.48.2.2c.28-.1.57.1.86.38l.59.78h.2l.57.39.4.68c.48.2.67.58.87 1.07.1.38.29.77.58 1.16v.3l.3 2.03-.6.97c-.28.4-.38.78-.28 1.17l-.4.58-.28.58c-.3.78-.59 1.36-.98 1.65-.29.3-.68.4-1.06.4l-1.07.18a6.54 6.54 0 0 0-1.46.49l-1.16.88c-.39-.2-.88-.4-1.65-.5l-2.04-.09-.3-.2h-.38l-1.94-.28-.39-.3a7.71 7.71 0 0 1-3.01-.87l-.68-.39c-.3-.2-.58-.39-.78-.48a2.68 2.68 0 0 1-1.45-1.46l-1.27-1.75c-.19-.39-.39-.77-.29-1.36 0-.48-.1-.97-.29-1.45-.2-.3-.2-.58-.1-.78.1-.29.1-.58 0-.97l-.1-.58-.19-.58-.29.1v-.1c-.39 0-.68.1-.78.29l-.1.1-.19 1.06-.1.4v.96l.1.4-.1 3.68.3 1.84v.49l.39 1.36c0 .49.1.97.2 1.46v.1l.09.09c.29.3.48.39.87.49l5.92 1.74c.4.1.68.1.98 0 .29-.2.38-.38.38-.58l-.58-.1-.48-.29c0-.2.2-.29.29-.29l.48-.2 1.36.3c.49.1.78.29 1.17.58v.3l-.2.19-.19.29v.19l.3.3 4.36.09 5.05-.78 2.91-1.16c.4-.3.68-.49 1.07-.68l2.04-1.65 1.65-1.85.58-1.26.2-.58.58-1.27.2-.97.38-1.26-.2-2.14v-.1l-.29-2.03a4.6 4.6 0 0 0-.58-1.75l-.87-1.65a14.72 14.72 0 0 0-3.4-3.1 25.57 25.57 0 0 0-3.79-2.24l-4.17-1.85-1.26-.48-3.11-1.94a9.83 9.83 0 0 1-2.82-2.53c0-.39-.19-.77-.38-1.06l-.2-.59-.48-2.42.1-.2.28-.87c0-.49.2-.78.59-.97v-.1l.2-.1 1.06-1.36 1.55-1.06.3-.1.19.1h.1l.39-.2.87-.1c.1-.19.39-.29.58-.38l1.36.1 1.36-.2a.82.82 0 0 1 .68 0l.2.1h.58l.87.1.68.19c.68.1 1.26.39 1.75.77l.58.4 1.07.96.58.68 1.16 2.43.1.39.1.97v.1l.2.68v.29c-.1.39 0 .68.19.97h.77c.3.1.49-.1.68-.29l.1-3.69c-.1-1.07 0-2.13.2-3.1-.1-.98 0-1.85.19-2.63l.1-.58v-2.04l-.59-.29v.1l-.19-.1h-.2zm-43.21.38h-3.01l-.4.2c-.18-.1-.28 0-.38.2l-1.46.09-2.13.48c-.4 0-.68 0-.78.2l-.77.29c-.3-.4-.59-.49-.88-.3l-.77.69-.98.1-2.03 2.23-1.66 1.16a1.92 1.92 0 0 0-.19.88c-.1.29-.2.48-.49.48l-.77.1c-.1.1-.2 0-.3-.1l-.09-.2c-.2 0-.49.2-.78.6l-2.81 4.17a5.37 5.37 0 0 0-.68 2.42c-.3.3-.39.68-.39 1.17l-.2 1.17v-.2l-.1.3-.19.48a4.04 4.04 0 0 0-.29 1.55v.1a9.27 9.27 0 0 0 0 2.33c-.1.48-.1.97 0 1.55 0 .49 0 1.07-.2 1.56l.2.68.2 1.94.19.2v.09c0 .1 0 .2.2.29l.38.97c-.1.39 0 .58.1.88l1.26 3.1 2.33 3.5a9.88 9.88 0 0 0 3.2 2.81 6.8 6.8 0 0 0 2.63 1.85c.97.48 1.94.87 2.91 1.46l2.14.77 1.07.2.38.19 1.75.39 1.36.1 2.91.19.2.1h.48l.97-.1h1.17l.2-.2 2.32-.1.2-.19h.2l.48-.1h.58l1.65-.38.58-.1.49-.1.19-.1.88-.29.48-.1.58-.1.2-.19.39-.1.58-.28.1-.1-.1-.78v-.2l-.1-1.45.1-.48c-.2-.59-.2-1.07-.2-1.56v-.1c.1-.58 0-1.16-.2-1.64-.09-.3-.09-.49.1-.68v-4.18l.2-.1.1-2.81.3-.49c0-.78.09-1.36.48-1.84l.29-.88h.1v-1.16h-3.21l-.58-.2h-.58l-1.07.2h-.97l-.49.1c-.2-.1-.39 0-.58.19l-3.1-.49-4.18.2c-.2 0-.3.1-.4.39v.1h-.09v.48l.48.48h3.11l1.46.68c.29 0 .48.1.68.49l.29.77c0 .2.1.5.29.5l.2.09c.1.1.19.29.29.48l.19.68v.1l.1.39v.3l.19 1.74-.2.97-.1 3.01.2.49.1.19c.2.39.1.78-.2 1.26v.3l.1.28.1.78c0 .3.3.49.78.58l.48.4v-.1.29l-.1.68c-.1.29 0 .48.2.77l-.97.3-.58.19-.1.1-.2.1h-1.65l-2.71-.4-4.37-1.06-1.17-.1-1.84-.97-.98-.2-3.1-2.72-.68-1.06-.78-.97c-.1-.49-.3-.98-.68-1.27-.48-.39-.78-.77-.87-1.26-.4-.2-.49-.39-.49-.68l-.1-.78-.1-.39-.19-.77-.48-1.07v-.49l-.4-2.13-.38-.97.2-1.94c-.2-.4-.3-.88-.3-1.36l.2-1.56v-.77c0-.3 0-.59.2-.78-.3-.48-.3-.97 0-1.36l.28-1.36.88-2.72.58-.68.1-.87c.1-.3.29-.49.58-.68l.68-1.26c.2-.49.58-.78 1.07-.98l.87-.58c.2-.29.48-.48.78-.58.38-.49.87-.87 1.45-1.07l2.04-.77h.49c.39-.2.77-.3 1.26-.4l1.65-.38 5.53.1.68.2 2.24.47 1.45.88c.4 0 .59.2.88.39l.77.48 2.53 3.2c-.1.4 0 .78.1 1.17l.19.49-.2 1.94v.39l.59.39.87-.2a.73.73 0 0 0 .68-.48c.1-.49.1-.88-.2-1.26v-.4c0-.29.1-.67.5-.87l-.1-.58-.3-.2-.1-.29v-.19c-.09-.2 0-.49.1-.68l.4-.78c-.3-.19-.4-.48-.3-.68v-.1l.2-.67v-.68l-.1-.1v-.39l.2-.29.09-1.07.3-1.26c0-.49 0-.88.09-1.17v-.29l-.1-.1v.1l-.1-.1v-.1l-.48-.09-.49.1h-.1l-.38-.2-1.36.1-2.04-.2-.97-.19-8.06-.29-.58.1h-.48z" fill="#905744"/><path d="M116.57 109.85h-1.84l-1.17.19h-1.16l-.87.1-3.98-.4-3.4.1c-.2.1-.3.3-.2.49v.58l.1.3h-.1l.2.19h.29l.58.2.58.09.98.48.38.3c.4.29.68.68.88 1.26l.29 1.55.2 1.56v.1l.09.19.1.39v.1c-.1.28-.1.48-.1.77l-.1.3c-.1.28-.1.67.1 1.06l.1.2.1.38v.3l-.1.48c-.1.2-.2.39-.2.58v.2l.1.29.1.48.1.3.1-.1v.48l-.2.68.2 2.82c.09.38.19.68.09 1.06l-.3 1.07c.3.39.4.87.4 1.46-.1.58-.1 1.06.1 1.55.19.39.19.78 0 1.07-.2.3-.2.68-.2 1.07.3.38.39.87.3 1.36-.2.48-.2.97-.1 1.45l.1 1.56c-.1.58 0 1.06.19 1.65l-.2.29-.39.2-1.16-1.46-1.36-1.36-.49.29c-.38-.3-.58-.59-.68-.98l-.1-1.16a7.68 7.68 0 0 0-1.93-2.04l-.4-.48-.67-.4c-.1-.48-.3-.96-.78-1.35l-1.17-1.17h-.58l-.48.3c-.49 0-.88-.3-.88-.59V128L96 125.48a12.75 12.75 0 0 1-2.04-2.62l-9.03-12.63c-.29-.3-.58-.39-1.06-.39l-2.63.4h-5.72l-1.07-.3-1.17.1-.77-.2-.88.2c-.29 0-.48.2-.48.48v.88l.2.1.09.1h.39c1.16 0 2.13.19 3.2.57a6.9 6.9 0 0 1 2.14 1.27l.48.48.2.2-.1.19-.2.68-.1.1v.68l.2.39v.87l.2.87v.59h-.1v1.36l.2.68-.1 3.88.2 1.46v-.1l.09.39-.1-.3.1 4.28v.2l-.1.28v.2l.2.58-.1 1.85c-.2.29-.1.68.1 1.06.19.4.19.68 0 1.17l.19.77c0 .3 0 .59-.1.88l-.1.58v.58c.2.3.2.59.2 1.07l-.2.97c.3.49.4 1.07.4 1.65l-.3 1.95-.1.19v.29c-.29.39-.29.78-.1 1.26 0 .39-.09.88-.28 1.17-.1.58-.4 1.07-.68 1.45l-1.17 1.17c-.48 0-.87.2-1.16.48-.4.2-.88.4-1.27.4l-.48.58-.2.48v.1l.1.39.3.1 2.61-.2.1-.1h.88l1.55-.2h1.46l.48.2h.58l.78-.2h.3l.67.3 1.07-.1 1.07.1h2.42c.2.1.4 0 .5-.3l.09-.77-.3-.48c-.87 0-1.64-.2-2.23-.49l-1.84-1.45-.78-2.62c-.2-.98-.2-1.85-.1-2.82l-.1-1.07.1-1.16-.29-3.2.1-.88v-.2l-.1-.68v-.97l.1-1.45-.1-2.43c-.29-.68-.2-1.36 0-2.04v-.1l-.1-.68v-.29l.1-.68v-.68l-.29-1.26.2-.49v-.2l.1-.28c.09-.4.09-.59-.1-.87l-.1-.88c.1-.39.1-.68 0-.97l-.3-.88c-.1-.58 0-.97.4-1.35.38 0 .68.1.68.38l.19.3.1.48c.1.3.29.39.68.58 0 .59.19.98.77 1.27.49.29.88.68 1.17 1.06.39.4.68.78.87 1.27.1.39.49.77.97 1.06l.68.98c.4.48.78.97 1.07 1.45l.39.59 2.43 2.71a5.42 5.42 0 0 1 1.55 2.04c.49.39.97.97 1.26 1.56l1.27 1.65c.19.48.48.87.87 1.16.49.3.78.68.97 1.17l2.04 1.94a5.46 5.46 0 0 0 2.14 2.52l.48.78v.2l.49.38.48.58.2.1c.29.1.48.4.58.78l3.4 3.88c.1.4.38.59.68.88l.29.1.68.67 1.65.3.2-.1h.87l1.06-.4-.1-.48a16.45 16.45 0 0 0 0-3.1v-5.34l.1-.4v-.09l-.1-.39-.28-3.4.19-.39v-1.06l-.1-.2v-.48l-.1-.1.1.1v-.68c0-.2 0-.3.1-.49l-.2-6.7.1-.87v-.2l-.2-2.8-.09-1.08c0-.68 0-1.26.1-1.84l.2-.88v-3.5l.38-1.25c.1-.3.1-.59.3-.88l.48-1.07.2-.29.09-.48c.1-.2.29-.4.48-.49l.3-.2.68-.57.38-.2h.49l.2-.1h.77c.1-.19.2-.19.39-.19l.1-.1.1-.29.09-.39-.1-.58-1.85-.2z" fill="#905744"/><path d="M105.9 136.84v-.39l-.2-.2c-.3.2-.39.4-.39.69l.3.19.19-.1.1-.2zM12.38 27.02c-.49.1-.78.1-1.07 0l-.87.2h-.88c-.29 0-.39.1-.29.29l-.2.48v.49l.2.29h.1l-.1.1 2.62.29.97 1.06.3.78.19.1.78.87v.1l-.1.3-.2.48-.1.19-.1.3.1.48.4.48.1.39v.49l-.1.1-.2.87.2.87.1.4c.09.28.09.67 0 1.06l.38 3.3v.1l.1.39v.1l-.3 1.74v.1l.2.48v.3l-.2.97v.29l.1.39.59 1.94c.29.39.39.77.39 1.16l-.1 3.89c.2.68.2 1.36.1 2.04l.1.97c.09.39 0 .68-.1.87l-.1 1.07.2 3.3-.1 1.07.1.58c.09.3 0 .58 0 .88v.38l-.5 1.75c0 .49.1.97.4 1.46v.2l-.2.77-.1.1.1.87.1.2.1.19v-.1c.1.49.1.97 0 1.46l-.4 1.74v1.66c.1.48-.1 1.06-.29 1.45-.1.68 0 1.46.2 2.24.2.77.29 1.45.29 2.23a2.8 2.8 0 0 1-1.17 1.94c-.19.49-.1.87.2 1.26l.39-.1.29.1c0 .3.1.4.29.49l.2.48-.69.68c-.2.3-.48.4-.87.3l-.1.29.1.29c-.1.48 0 .87.2 1.26.29.3.29.78.19 1.26l-.97 1.17c-.1.39-.3.77-.68 1.07l-1.56.97c-.1.1-.19.1-.38.1-.1.1-.2.1-.4.1l-.38.18-.97.2h-.1l-.29.87v.1h-.1v.48l.88.2-.88.1 1.95.29 13.3.2.58.18h.58l1.75-.19 17.1.3c.28-.1.48-.4.57-.69l.59-1.36c.29-.39.38-.87.29-1.36l.87-3-.2.48 1.08-3.7.38-.87v-.38l.2-.1h1.84l.2.2 1.94.1 5.63-.4.49-.2.58-.19.49-.1h.38c.3-.09.59-.28.88-.38l.97-.3.58-.28.49-.3 2.23-.97a8.78 8.78 0 0 0 1.26-.77l.68-.78c.39 0 .78-.2 1.07-.58l1.84-1.94c.2-.4.49-.59.88-.68l.97-1.46.68-1.75.3-.29.57-.78.1-.48.68-.68c0-.68.1-1.17.39-1.65.3-.49.39-1.07.3-1.75l.28-.68.49-2.23v-1.85l.1-.68c-.1-.39-.1-.78-.3-1.16l-.1-.59v-.58c.1-1.46 0-2.72-.48-3.88l-.39-1.36a1.8 1.8 0 0 0-.68-1.17 4.68 4.68 0 0 0-1.16-2.52 12.77 12.77 0 0 0-2.43-3.7l-.39-.48-5.05-4.17c-.38-.3-.87-.49-1.26-.49l-1.16-.39c-.3-.29-.59-.39-.88-.29l-1.16-.48c-.1 0-.3 0-.4-.1l-.38-.29-3.01-.78-5.34-.1-.78.1h-.87l-4.76.78-1.17.48-1.26.3-2.82 1.45c-.29.4-.87.68-1.45.97l-1.17.59c-.29.2-.58.38-1.07.38l-.58.5-.3.77a1 1 0 0 1-.57.48l-.68.2-.49.48.2.59c0 .2 0 .38-.1.58l-.68-.1v.49c-.3.77-.68 1.55-1.17 2.13a5.16 5.16 0 0 0-1.16 2.14c0 .48-.2 1.07-.49 1.55 0 .4 0 .78-.1 1.17l-.38.58-.1.1v.2l-.1.09V58l-.1.19v.39l-.09.39v.1l.1 1.84-.1.3.2 2.03-.1.3-.1.87v.38l.2.88v.29l.1.68 1.16 3.5c.29 1.06.77 2.13 1.36 3.1l.29.59.68 1.06v.1l3.5 3.98a16.24 16.24 0 0 0 4.27 3.01c.58.1 1.26.39 1.94.87.58.3 1.36.49 2.04.68l1.55.68c-.1.78-.58 1.56-1.17 2.24l-1.74 1.94a4.26 4.26 0 0 1-2.14 1.36l-2.43.48c-.58.4-1.06.59-1.45.68l-4.86-.48c-.29.1-.48.2-.48.48l-.4.49c-.77-.78-1.74-.97-2.8-.78l-3.12-.29-.77-2.62v-.1l-.1-.2.1-.19v.4c0-.4.1-.69.48-.98.2-.3.49-.68.59-1.07l-.78-3.88-.1-.2-.2-.77.2.1h.1c.1-.3.2-.68.2-.97v-1.27l-.1-.2-.2-.1v.1c0 .1 0 .3-.1.4l-.19-.59-.2-.77.2-1.46v-2.72l.3 2.91v-3.1l-.3-1.17.1-15.15c0-.48 0-.97-.3-1.36l.3-2.72-.3-2.62a2.7 2.7 0 0 0 0-2.43c.3-.58.4-1.16.2-1.74-.2-.59-.1-1.07.2-1.65-.2-1.36-.2-2.72-.1-4.18l.2-4.08.28-.87.2-1.56.48-1.45.4-.68.57-.58c.4-.68.88-1.07 1.56-1.17l1.45-.68h1.07l.2-.1h.38l.59-.19h.39c.29.1.58 0 .77-.2l-.29-.1.2-.67-.1-.68-2.72-.1-6.12.49H22l-.87.1-8.74-.49zm45.05 18.35.88.59 2.52 2.03 1.26 1.46.2.1a7 7 0 0 1 1.07 1.84c.38.59.77 1.36 1.06 2.14l1.07 2.23.58 2.14c.4.68.49 1.46.4 2.33.28.39.38.87.38 1.46-.1.58-.1 1.07.1 1.55.2.2.2.49.2.68l-.2.78c-.1.29-.1.58.1.87.1.2 0 .49 0 .68l-.1.78c-.3.29-.4.68-.3.97.2.39.2.78.2 1.16l-.2.78c0 .2-.1.49-.38.58l-.4 1.85-.57.68a1.64 1.64 0 0 0-.3.97c-.38.87-.97 1.75-1.65 2.52a9.26 9.26 0 0 1-2.33 2.04 8.13 8.13 0 0 1-2.33 1.56l-2.72.77c-.19.2-.48.3-.87.3l-3.01.1-1.94-.2-1.17-.3-1.16.1-1.17-.29-.29-.29-.48-.1-.88-.97c-.39-.29-.68-.48-1.16-.58l-.4-.58-.58-.1-.58-.1c-.29-.2-.38-.58-.38-.97.1-.3-.2-.58-.59-.68l-1.26-1.55-2.72-4.66.1-.2v-.39l-.1-.39-.68-1.06-.1-.3.1-.29.1-.2v-.09c0-.29-.1-.58-.2-.77-.19-.3-.29-.49-.19-.78v-.1l-.1-.1-.48-1.55c-.1-.3 0-.58.2-.97-.1-.39-.2-.87-.4-1.26-.29-.49-.29-.88-.1-1.36.3-.58.3-1.17 0-1.65l.1-.88c.1-.29.1-.48.1-.77l.49-.97c.1-.4.1-.68.1-1.17.28-.48.48-.97.28-1.55.3-.3.49-.68.59-1.07.1-.49.39-.87.68-1.17 0-.2 0-.48.2-.68l.28-.29.59-.77.1-.1.19-.49.77-.97.68-.2v-.09l.2-.58.29-.2.97-.38.97-.78a8.05 8.05 0 0 1 1.94-.78l.59-.29c.19 0 .38-.1.67-.2h.2l.58-.09.58-.2h.2l2.52-.28h.88l3 .58 3.21 1.16zm-41.36.78.2-2.14.09 2.92-.3-.78zm7.47 26.8-.29-1.07.1-1.94.2 3zm36.8 41.07-.68.1-3.2.1h-.2.1a5.82 5.82 0 0 1 2.63.97c.58.39.97 1.55 1.16 3.4.1 1.84.1 3.97 0 6.4l-.58 6.9v1.07l-.2.29v.48c-.1.1-.19.3-.1.49a.6.6 0 0 1 .1.68c-.29.29-.29.48-.1.77.2.2.3.4.4.78-.2.39-.2.87-.1 1.36.2.39.2.77.1 1.26l-.4.78c.2.38.2.87 0 1.36l-.38 1.36.39.87.58.78.1.68c0 .19 0 .38-.2.68.3.38.4.87.3 1.26l-.2 1.36-1.46-.2-.19.49-.1.58-.39.49-.58.29-1.75.48-.58-.1c-.1.2-.2.2-.39.2l-.48.58v.49c.1.1.19.2.19.39.1.1.2.1.3.1l3.3-.1a6.44 6.44 0 0 0 1.93 0l1.46-.1.49.1 1.06-.2h.3l.77.2 2.14-.2 4.56.2.4.1h.09l.39-.1c.29-.1.48-.2.39-.49-.1-.3 0-.48.19-.78-.3-.2-.49-.2-.78-.2h-.68l-1.94-.67a3.05 3.05 0 0 1-1.36-1.36l-.58-2.04c-.2-1.45-.3-3-.2-4.56v-4.66l-.1-.58c.2-.59.2-1.27.2-1.95v-2.03l-.1-.78.2-9.9.3-1.17v-.3l.38-1.55c.1-.68.39-1.35.87-1.84l.3-.58.1-.2.38-.19 2.04-.49h.1l.58-.1.1-.19.1-.2.19-.96-10.88.1-.78-.2z" fill="#905744"/><path d="M57.34 117.22c.1.4.2.68.49.98l.68.97v.68l.58 1.26v.1l-.1.58.1.1c.2.29.4.58.3.97l-.1 1.07.1 1.06v.88l.19.87-.2 2.04.3.49.1-4.67c0-2.33-.1-4.17-.4-5.63-.19-1.55-.58-2.42-1.16-2.81l-2.23-1.46c-.59-.39-1.17-.58-1.75-.48l-.3.48v.58l.2.1.68.2c.3 0 .58.1.87.38.3 0 .69.1.88.4l.77.86z" fill="#905744"/><path d="m54.33 114.02-.1.2c.4 0 .78-.1 1.27-.1l-1.17-.1zm5.25 17.29v.48-.78.3zm-20.2-28.07-.87-.2-2.43-.48c-.3-.19-.68-.29-1.07-.29l-1.26.1c-.2-.1-.39-.3-.68-.3-.3 0-.49.2-.68.3l-4.56-.3-5.05.3-2.14-.1-8.74.58-1.55.3c-.58-.1-1.07.1-1.55.38l-.1.3v.48l.39.68 1.74.2 1.07.29c.58.1 1.17.39 1.75.87l.78.88.2.58.09.1v.09l.1.1.29.68v-.1l.1.58.1 1.65c-.1.59 0 1.07.28 1.56l-.1.48.1.68c.1.2.2.4.2.68l-.1.39v.1l-.1.39v2.23l-.2.49v.1l.2.67v2.24l.1 2.23-.2 2.72.1 1.36c.1 1.36.2 2.81 0 4.17l.1 13.79-.1 1.26-.29 3.2-.39 1.08-.58 1.16-1.17 1.26c-.29.49-.77.78-1.35.88-.88.58-1.75.77-2.72.77-.39.1-.49.3-.59.58v1.07l.2.1.58.2.78-.2h4.27l.2-.1h.29l.97-.2h.2l.77-.09h3.3v.1l5.05.2.2.09 3.49.3.58-.1h.2l.29-.3.2-1.26-.2-.2h-.3v-.1l-.58-.09-.48-.1-1.46-.39-4.27-.29.1-.29h.1l.38-.29.1-.1.39-.1.58-.38v-.59l-.3-1.06v-1.07l-.18-.87-.49-1.17c.2-.48.2-.97.2-1.55v-1.56c.1-.48 0-.77-.2-1.16a14.48 14.48 0 0 1 0-2.92c.2-.87.2-1.84 0-2.81l.2-.97v-.1l-.2-1.07.2-.29.58.1 2.23-.1.58.1h.2l.2-.1h1.06l5.53.1h.2l.29.1h.1l.1.1.48.48c.39.1.49.3.58.58l.1.78c0 .2.2.39.49.58-.1.39-.1.78.1 1.26l.38.88.1.29.48.39h.68l2.33-.59h.98c.38.1.68.1 1.06 0h.2l.68.4.2.19c.09.29.19.48.09.77v-.1l-.1.4v.19l-.1.1h-.38l-.49-.59-.3.2-.19.39.4.29.28.1h.1c.2.1.2.19.2.48l-.1.39v.1l-.1.19h-.2l-.19-.1-.2-.48-.28-.49-.2-.2-.38-.28-.3-.3-.58.5-.58.18h-.1l-.39-.48c-.2-.2-.38-.3-.58-.1l-.2.3.2.67v.68c.2.59.49.97.78 1.17.39.2.48.39.58.68v.1l.1.29.58.58.49.49.1.19.09.1-.1.39-.1.19v.2h.1l.1.19.58.48c.2.1.39.2.58.49l.1.19-.1.78.3.48v.2l.29.1.2.19.19.77.29.3.2.19v.1h.09v.1c-.1.28.1.67.39.87l.58.58.1.2.1.58.19.48 2.04 3.1.48.79c.4.38.78.77 1.07 1.26l.68.87.2.2.19.29c.49-.1.78.1 1.07.48l.87.97.1.4.29.19.78.1h.68l.19-.1v-.1l-.68-.3.87-.1.4.1.38.2h.49l.58-.1.29.1.1.1.1.2-.3.19v.68c.3.29.78.48 1.27.48l1.45.1v-.3c-.1-.1-.29-.1-.39-.1l-.29-.48-.48-.38.87-.1c.1.1.1.2.1.29l-.1.2.1.1c.58.67 1.16.96 1.84.77l4.57-.97.39-.4.1-.38v-.2l.09-.68c-.2-.19-.49-.19-.78-.19h-.87l-.97-.48-4.18-2.63-.77-.77c-.3-.3-.59-.3-.98-.1-.29.39-.38.87-.29 1.46l-.97-1.07v-.78a.75.75 0 0 1 .39-.39l.58-.19a6.73 6.73 0 0 0-1.16-1.75l-1.56-1.65c0-.29-.1-.68-.38-.87l-1.17-1.65c-.39-.2-.48-.49-.39-.97a8.96 8.96 0 0 1-1.75-2.92l-.97-1.45a3.27 3.27 0 0 0-.97-1.56l-.97-1.65a3.3 3.3 0 0 0-.58-1.16 1.52 1.52 0 0 1-.58-1.17l-1.07-1.84a4.24 4.24 0 0 0-1.17-1.85 4.22 4.22 0 0 0-.97-1.84l-1.46-2.43v-.39l.3-.29.68-.68c.19-.1.48-.3.77-.3l1.36-1.16c.49-.39.78-.97.97-1.45l.97-1.07.97-1.36.59-.97 1.45-3.89.59-3.5v-.96c-.1-.58-.1-1.07-.3-1.56l-.29-1.65-.1-.1-.48-2.8v-.1l-.2-.1-.38.1-.2-.1h-.19l-.29-.4h-.49a.53.53 0 0 0-.48.3l.48.68-.19.58-.3.39-.28-.3-.2-.38-.19-.2-.2-.38h-.29l-1.06.1c-.2 0-.3.1-.3.19l.1.1v.1l-.1.19-.67-.1-.59.1-.48-.3v-.1l.19-.48.68-.19.1-.2 3.3-1.74.29-.49v-.58l-.1-.1-2.52-2.13A8.56 8.56 0 0 0 42.1 104l-.88-.39-.58-.1c-.1-.09-.2-.19-.49-.19l-.78-.09zm-1.65 5.15c.58.39 1.07.97 1.46 1.65.87 1.07 1.45 2.33 2.04 3.5l.39 1.84c.19.58.29 1.46.19 2.62-.2.97-.2 1.56.1 1.75l.48.39.39.1-.3.19c-.19 0-.28.1-.38.2l-.3 1.35c0 .49-.19.88-.28 1.17l.1.68c-.2.29-.3.68-.3 1.07 0 .48-.2.77-.39 1.06-.29.2-.29.4-.29.59.1.29.1.48 0 .68l-.68.68-1.94 2.52c-.58.58-1.36.87-2.23.97l-.3.2-.38.19-.49.3-.58.09-1.26.58h-3.01l-2.04-.1c-.49-.2-.88-.2-1.26 0l-1.36-.2H25l.1-.09-.78-.29c-.39.1-.58 0-.58-.3l-.3-.77v-6.4c-.1-.1-.1-.3 0-.5.1-.19.2-.38.2-.67v-.68c-.3-.58-.39-1.17-.3-1.75.1-.58.1-1.16.1-1.75l.3-.97v-1.65l-.2-.2-.19-.87V115l.1-.48.29-.78-.1-.3v-3.68c.3-.39.3-.87.3-1.36-.1-.49-.1-.97-.3-1.36l.3-.58.29-.1 1.16-.39 3.5-.29 1.65.1h.2v.1h.77l.58.1.1.1.39.09h.1l2.03.48c.3.1.49.2.78.4l.68.28.1.1h.1l1.35.97z" fill="#905744"/></g></svg>